<?xml version="1.0" standalone="no"?>
<!DOCTYPE svg PUBLIC "-//W3C//DTD SVG 20010904//EN"
 "http://www.w3.org/TR/2001/REC-SVG-20010904/DTD/svg10.dtd">
<svg version="1.0" xmlns="http://www.w3.org/2000/svg"
 width="672.000000pt" height="672.000000pt" viewBox="0 0 672.000000 672.000000"
 preserveAspectRatio="xMidYMid meet">
<metadata>
Created by potrace 1.14, written by Peter Selinger 2001-2017
</metadata>
<g transform="translate(0.000000,672.000000) scale(0.100000,-0.100000)"
fill="#000000" stroke="none">
<path d="M3188 6715 c-2 -2 -28 -7 -58 -10 -30 -3 -62 -8 -70 -10 -8 -2 -31
-7 -50 -10 -99 -17 -328 -91 -377 -123 -13 -8 -23 -10 -23 -6 0 5 -4 4 -8 -2
-4 -5 -27 -20 -52 -32 -84 -41 -208 -119 -273 -172 -305 -249 -510 -555 -615
-920 -29 -100 -46 -180 -56 -262 -5 -44 -13 -59 -29 -56 -28 4 -263 -87 -287
-112 -3 -3 -36 -26 -75 -52 -102 -70 -203 -177 -283 -303 -37 -60 -97 -209
-107 -270 -2 -11 -8 -42 -14 -70 -12 -64 -7 -285 9 -350 32 -131 127 -345 153
-345 4 0 7 -6 7 -14 0 -19 163 -185 220 -223 116 -78 274 -143 382 -158 24 -3
52 -8 63 -10 11 -2 27 -4 36 -4 9 -1 38 -46 74 -113 32 -62 67 -126 77 -141
11 -15 21 -33 22 -40 1 -7 20 -46 43 -87 22 -41 63 -118 89 -170 27 -52 51
-97 54 -100 3 -3 21 -36 41 -75 98 -188 120 -230 130 -242 7 -7 8 -13 5 -13
-4 0 1 -12 11 -27 11 -16 36 -59 55 -98 20 -38 57 -108 82 -155 26 -47 62
-116 82 -155 19 -38 39 -77 44 -85 29 -46 98 -180 93 -180 -3 0 1 -8 9 -17 8
-10 45 -76 83 -148 71 -136 170 -325 217 -410 14 -27 44 -84 65 -125 37 -70
77 -147 191 -360 68 -127 124 -234 178 -338 26 -51 53 -97 60 -103 9 -7 25 15
61 88 44 88 269 528 519 1018 50 99 154 302 229 450 76 149 185 362 243 475
57 113 166 327 242 475 246 483 342 670 345 674 2 2 19 4 37 6 76 6 135 18
208 43 8 3 20 6 26 7 30 7 151 71 212 112 60 41 172 145 212 198 71 93 153
260 163 330 1 11 6 26 10 33 5 6 6 12 4 12 -2 0 1 24 8 53 16 71 17 236 0 327
-43 245 -176 462 -377 614 -26 20 -52 36 -57 36 -6 0 -11 4 -11 9 0 5 -8 11
-17 15 -10 3 -40 18 -68 33 -46 27 -129 62 -158 67 -53 11 -97 29 -98 41 -1 8
-2 18 -3 23 -1 4 -6 32 -10 62 -58 401 -295 821 -611 1085 -26 22 -53 45 -59
50 -6 6 -52 38 -102 72 -142 94 -299 166 -509 233 -38 12 -127 30 -180 36 -22
3 -47 7 -55 11 -16 6 -396 14 -402 8z m-726 -3274 c8 -21 329 -161 405 -176
10 -1 45 -10 78 -18 83 -21 271 -45 380 -48 29 -1 254 11 275 15 14 3 43 7 65
11 68 10 218 46 260 62 22 8 47 16 55 18 30 6 172 66 250 105 44 22 90 40 102
40 26 -1 78 -42 77 -62 0 -7 -33 -76 -74 -153 -40 -77 -103 -198 -139 -270
-37 -71 -111 -215 -165 -320 -55 -104 -152 -293 -216 -420 -65 -126 -122 -231
-126 -233 -5 -2 -9 -8 -9 -14 0 -12 -20 -51 -153 -308 -50 -96 -100 -194 -111
-217 -18 -35 -23 -39 -34 -27 -7 8 -10 14 -7 14 4 0 -2 12 -13 28 -10 15 -36
61 -57 102 -50 99 -57 112 -74 133 -8 9 -11 17 -6 17 4 0 3 6 -3 13 -5 6 -31
53 -57 102 -63 121 -78 148 -89 164 -6 7 -11 19 -12 27 -1 7 -10 26 -21 41
-10 15 -27 46 -38 68 -11 22 -22 42 -25 45 -3 3 -17 30 -32 60 -27 55 -115
221 -187 355 -21 39 -62 115 -91 170 -29 55 -65 123 -80 150 -15 28 -51 95
-80 150 -29 55 -71 134 -93 175 -22 41 -49 93 -60 114 l-21 39 32 28 c31 28
86 40 94 20z"/>
</g>
</svg>
