<?xml version="1.0" encoding="UTF-8"?><svg id="Layer_1" xmlns="http://www.w3.org/2000/svg" viewBox="0 0 144 144"><defs><style>.cls-1{fill:#feea00;}.cls-2{fill:#231f20;}</style></defs><circle class="cls-1" cx="72" cy="72" r="72"/><path class="cls-2" d="M86.7,97.8c-5.37,2.83-10.84,3.91-17.39,3.91-16.02,0-29.6-11.72-29.6-30.48,0-20.12,13.97-37.51,35.66-37.51,17,0,28.43,11.92,28.43,28.23,0,14.65-8.21,23.25-17.39,23.25-3.91,0-7.52-2.64-7.23-8.6h-.39c-3.42,5.76-7.91,8.6-13.77,8.6s-10.55-4.59-10.55-12.31c0-12.11,9.57-23.15,23.15-23.15,4.2,0,7.91,.88,10.45,2.05l-3.32,17.68c-1.46,7.42-.29,10.84,2.93,10.94,4.98,.1,10.55-6.54,10.55-17.88,0-14.16-8.5-24.32-23.64-24.32-15.92,0-29.31,12.6-29.31,32.43,0,16.31,10.65,26.38,25.11,26.38,5.57,0,10.75-1.17,14.75-3.42l1.56,4.2Zm-5.37-42.2c-.98-.29-2.64-.68-4.88-.68-8.6,0-15.53,8.11-15.53,17.58,0,4.3,2.15,7.42,6.45,7.42,5.67,0,10.84-7.23,11.92-13.29l2.05-11.04Z"/></svg>