<?xml version="1.0" encoding="UTF-8"?><svg id="Layer_1" xmlns="http://www.w3.org/2000/svg" viewBox="0 0 144 144"><defs><style>.cls-1{fill:#feea00;}.cls-2{fill:#010101;}</style></defs><circle class="cls-1" cx="72" cy="72" r="72"/><path class="cls-2" d="M103.5,108c-8.13,0-16.22-2-24.25-6s-15.25-9.2-21.65-15.6c-6.4-6.4-11.6-13.62-15.6-21.65-4-8.03-6-16.12-6-24.25,0-1.27,.43-2.33,1.3-3.2s1.93-1.3,3.2-1.3h14c.93,0,1.75,.32,2.45,.95,.7,.63,1.15,1.48,1.35,2.55l2.7,12.6c.13,.93,.12,1.78-.05,2.55-.17,.77-.52,1.42-1.05,1.95l-10,10.1c3.73,6.2,7.92,11.6,12.55,16.2,4.63,4.6,9.88,8.5,15.75,11.7l9.5-9.8c.67-.73,1.43-1.25,2.3-1.55s1.73-.35,2.6-.15l11.9,2.6c1,.2,1.83,.7,2.5,1.5,.67,.8,1,1.73,1,2.8v13.5c0,1.27-.43,2.33-1.3,3.2-.87,.87-1.93,1.3-3.2,1.3ZM46.9,61.2l8.1-8.2-2.3-11h-10.7c0,2.6,.4,5.45,1.2,8.55s2.03,6.65,3.7,10.65Zm36.9,36.3c2.73,1.27,5.7,2.3,8.9,3.1,3.2,.8,6.3,1.27,9.3,1.4v-10.7l-10.3-2.1-7.9,8.3Z"/></svg>