<?xml version="1.0" encoding="utf-8"?>
<!-- Generator: Adobe Illustrator 26.5.0, SVG Export Plug-In . SVG Version: 6.00 Build 0)  -->
<svg version="1.1" id="Layer_1" xmlns="http://www.w3.org/2000/svg" xmlns:xlink="http://www.w3.org/1999/xlink" x="0px" y="0px"
	 viewBox="0 0 16 21" style="enable-background:new 0 0 16 21;" xml:space="preserve">
<style type="text/css">
	.st0{fill-rule:evenodd;clip-rule:evenodd;fill:#E1E1E1;}
</style>
<path class="st0" d="M4.8,10.4l3.3,6.2l3.2-6.2c-0.1-0.1-0.2-0.2-0.3-0.2C10.1,10.7,9.1,11,8,11s-2.1-0.3-2.9-0.8
	C5,10.2,4.9,10.3,4.8,10.4z M2.8,11C1.2,10.9,0,9.6,0,8c0-1.5,1.1-2.7,2.5-3C2.8,2.2,5.1,0,8,0s5.2,2.2,5.5,5C14.9,5.3,16,6.5,16,8
	c0,1.6-1.2,2.9-2.8,3L8.1,21L2.8,11z"/>
</svg>
