<?xml version="1.0" encoding="utf-8"?>
<!-- Generator: Adobe Illustrator 26.5.0, SVG Export Plug-In . SVG Version: 6.00 Build 0)  -->
<svg version="1.1" id="Layer_1" xmlns="http://www.w3.org/2000/svg" xmlns:xlink="http://www.w3.org/1999/xlink" x="0px" y="0px"
	 viewBox="0 0 24 24" style="enable-background:new 0 0 24 24;" xml:space="preserve">
<style type="text/css">
	.st0{fill:#8283E0;}
</style>
<g>
	<g>
		<path class="st0" d="M16.13,15.13L18,3h-4V2h-4v1H5C3.9,3,3,3.9,3,5v4c0,1.1,0.9,2,2,2h2.23l0.64,4.13C6.74,16.05,6,17.43,6,19v1
			c0,1.1,0.9,2,2,2h8c1.1,0,2-0.9,2-2v-1C18,17.43,17.26,16.05,16.13,15.13z M5,9V5h1.31l0.62,4H5z M12,19c-0.55,0-1-0.45-1-1
			s0.45-1,1-1s1,0.45,1,1S12.55,19,12,19z M14.29,14H9.72L8.33,5h7.34L14.29,14z"/>
	</g>
</g>
</svg>
