<?xml version="1.0" encoding="UTF-8"?><svg id="Layer_1" xmlns="http://www.w3.org/2000/svg" viewBox="0 0 16 21"><defs><style>.cls-1{fill:#f0d189;fill-rule:evenodd;}</style></defs><path class="cls-1" d="M4.79,10.4l3.26,6.22,3.17-6.21c-.11-.08-.21-.16-.3-.25-.84,.53-1.85,.84-2.92,.84s-2.08-.31-2.92-.84c-.09,.09-.19,.17-.29,.24Zm-1.96,.59c-1.58-.09-2.83-1.39-2.83-2.99,0-1.49,1.09-2.73,2.52-2.96C2.75,2.22,5.12,0,8,0s5.25,2.22,5.48,5.04c1.43,.23,2.52,1.47,2.52,2.96,0,1.59-1.24,2.9-2.81,2.99l-5.12,10.01L2.83,10.99Z"/></svg>