<?xml version="1.0" standalone="no"?>
<!DOCTYPE svg PUBLIC "-//W3C//DTD SVG 20010904//EN"
 "http://www.w3.org/TR/2001/REC-SVG-20010904/DTD/svg10.dtd">
<svg version="1.0" xmlns="http://www.w3.org/2000/svg"
 width="208.000000pt" height="208.000000pt" viewBox="0 0 208.000000 208.000000"
 preserveAspectRatio="xMidYMid meet">
<metadata>
Created by potrace 1.14, written by Peter Selinger 2001-2017
</metadata>
<g transform="translate(0.000000,208.000000) scale(0.100000,-0.100000)"
fill="#000000" stroke="none">
<path d="M694 2057 c-23 -17 -25 -26 -21 -60 3 -22 12 -44 20 -49 14 -8 15
-60 2 -223 -2 -27 -4 -58 -4 -67 -1 -10 -13 -19 -33 -23 -37 -8 -109 -51 -121
-71 -6 -11 -21 -6 -70 21 -34 19 -92 52 -129 73 -53 29 -70 44 -79 70 -18 56
-73 69 -114 28 -48 -48 -4 -123 64 -112 37 6 46 2 213 -95 l67 -39 -21 -48
c-29 -65 -29 -176 1 -253 26 -68 86 -139 147 -175 62 -36 60 -58 -7 -69 -19
-3 -45 -8 -59 -10 -14 -3 -34 -7 -45 -9 -56 -11 -186 -61 -237 -92 -109 -66
-153 -144 -129 -224 17 -59 102 -122 194 -145 28 -8 33 -15 18 -31 -16 -16
-41 -116 -41 -163 0 -50 26 -116 56 -143 97 -86 316 -70 492 35 29 18 64 39
77 47 24 14 27 13 82 -41 154 -148 287 -206 406 -176 57 15 120 80 142 148 24
70 27 201 8 304 -8 44 -16 86 -16 93 -1 8 16 21 39 30 80 33 179 98 239 158
152 150 160 317 20 399 -24 15 -72 32 -106 38 -57 11 -60 13 -55 37 3 14 9 57
12 96 6 58 3 78 -14 116 -28 63 -61 83 -137 82 -107 -1 -222 -66 -366 -210
-104 -102 -112 -102 -115 7 -4 129 -83 249 -201 304 -28 14 -60 25 -70 25 -43
0 -63 12 -58 34 2 11 6 74 9 139 5 108 7 121 31 148 14 17 25 34 25 39 0 25
-22 59 -42 66 -40 13 -47 13 -74 -9z"/>
</g>
</svg>
